<?xml version="1.0" encoding="UTF-8"?>
<svg width="28px" height="28px" viewBox="0 0 28 28" version="1.1" xmlns="http://www.w3.org/2000/svg" xmlns:xlink="http://www.w3.org/1999/xlink">
    <!-- Generator: Sketch 64 (93537) - https://sketch.com -->
    <title>ICONS / phone Copy</title>
    <desc>Created with Sketch.</desc>
    <g id="ICONS-/-phone-Copy" stroke="none" stroke-width="1" fill="none" fill-rule="evenodd">
        <g id="Group" fill="#FFFFFF">
            <path d="M15.7721944,25.1564264 C10.015643,22.0534403 5.63140951,17.6599175 2.84374801,12.22998 C1.541558,10.0422627 1.7880813,7.14358693 3.29764593,5.62086978 C3.39850297,5.51896796 3.39850297,5.51896796 3.56453952,5.35105616 L3.84995534,5.06237698 C4.11109911,4.79839506 4.31284739,4.59514621 4.50539546,4.40212941 L4.57091331,4.33649458 C5.6860562,3.22010208 6.17045279,2.76577197 6.44649429,2.59386366 C6.93684569,2.28656978 7.38173393,2.10731917 7.90022375,2.0315596 C8.85058504,1.89269678 9.73221306,2.21316791 10.4032514,2.97150803 C11.0536303,3.7065008 11.3333147,4.07427971 12.2107781,5.33808019 C12.27641,5.43260909 12.3283181,5.5069587 12.3775143,5.5768757 C12.4235177,5.64225501 12.4663413,5.70258971 12.5079225,5.7605957 C13.1776866,6.69595884 13.1329674,7.89806839 12.354922,8.78879431 C11.7539217,9.47844246 11.2013723,10.0686544 10.5577422,10.7050932 C10.491184,10.7710419 10.5,10.8740531 10.674535,11.089023 C12.1554992,13.1127581 14.2444076,15.1974233 16.9591545,17.3631169 C17.1288156,17.501976 17.2282704,17.5079439 17.2933568,17.4422671 C17.9314176,16.7976272 18.5216571,16.2449438 19.2103602,15.6441349 C20.1021549,14.8671754 21.3038154,14.8229619 22.2384181,15.4920638 C22.2959795,15.5332388 22.3563567,15.5760094 22.421838,15.6220049 C22.4901845,15.6700131 22.5628629,15.720686 22.6551589,15.7846984 C23.9178779,16.6604635 24.2907662,16.9438856 25.0278939,17.5960388 C25.7866755,18.2669919 26.1073314,19.1485824 25.9684437,20.0990942 C25.892762,20.6170408 25.7151433,21.058383 25.4068496,21.5524639 C25.2334336,21.8296169 24.7792095,22.3135537 23.6625753,23.4285722 L23.5975921,23.4934191 C23.4046678,23.6858167 23.2015372,23.887397 22.9371997,24.1488374 L22.6484545,24.4342623 C22.4806764,24.6001359 22.4806385,24.6001734 22.3790078,24.7007438 C20.8542749,26.2129845 17.9504268,26.4578628 15.7721944,25.1564264 Z" id="Path"></path>
        </g>
    </g>
</svg>