<?xml version="1.0" encoding="UTF-8"?>
<svg width="120px" height="85px" viewBox="0 0 140 88" version="1.1" xmlns="http://www.w3.org/2000/svg" xmlns:xlink="http://www.w3.org/1999/xlink">
    <!-- Generator: Sketch 64 (93537) - https://sketch.com -->
    <title>✱ / LOGOS / Colour - On Black</title>
    <desc>Created with Sketch.</desc>
    <g id="✱-/-LOGOS-/-Colour---On-Black" stroke="none" stroke-width="1" fill="none" fill-rule="evenodd">
        <g id="Group-26" transform="translate(2.000000, 10.000000)">
            <path d="M16.9566099,4 L17.2720405,4.094005 L17.7584523,4.29082798 L17.9618609,4.62278316 L18.489544,4.2761397 L18.8580378,4.20269829 L19.3326578,4.24676314 L20.0077384,4.40539658 L20.3555965,4.39364596 L20.6946108,4.75791535 L20.8773837,5.1251224 L21.0454169,5.1251224 L21.21345,5.29844413 L21.2222939,5.64214993 L21.2252418,5.83015994 L21.0719484,6.20617996 L21.2311377,6.38831466 L21.4168586,6.38243934 L21.7735606,6.73495811 L21.9209581,6.54401045 L22.100783,6.18267871 L22.0948871,6.00641932 L22.2540765,5.80959634 L22.6019346,5.76259384 L22.9704284,5.68033946 L23.6307692,5.78021978 L24.3589129,5.95941682 L24.65076,6.34131215 L24.8364809,6.479382 L25.0015661,6.66445436 L25.184339,7.03166141 L25.1902349,7.58100316 L25.0251497,7.95408552 L25.2020267,8.11859428 L25.2108706,8.66793602 L25.2108706,8.864759 L25.5705205,9.23196605 L25.9036389,9.22315308 L26.0775679,9.75193124 L26.0864118,10.2983353 L26.4460617,10.2895224 L26.7732842,10.3570885 L27.2243206,10.6449788 L27.4778443,10.9857469 L27.4896361,11.5439016 L27.3216029,11.908171 L27.1653616,12.2841911 L26.8233994,12.4751387 L26.9884846,12.6396475 L27.5132197,12.8188445 L27.8610778,12.8129692 L28.0202672,12.9951039 L28.029111,13.3505603 L28.7130355,13.5268197 L28.8958084,14.2524208 L29.4175956,14.4286802 L29.7625058,14.9633337 L29.6151082,15.6859972 L29.2643022,16.0678925 L29.4559189,16.4321619 L29.2790419,16.9844413 L28.7926301,17.533783 L28.1116536,17.7364813 L27.7578996,17.5572843 L27.256748,17.3957132 L26.7408567,17.4104015 L26.2131737,17.0490697 L26.0451405,16.687738 L25.8653155,16.320531 L25.1813911,16.3381569 L25.0251497,16.7112393 L25.0369415,17.2429551 L25.0428374,17.4456534 L24.8600645,17.6189751 L24.8659604,18.1624415 L25.0546292,18.3622022 L25.3965914,18.5296486 L25.7415016,18.3445762 L26.2397052,18.5061473 L26.6288346,18.2388206 L26.9265776,18.124252 L27.4247812,18.2211946 L27.7785352,18.4767708 L27.9672041,18.6589055 L28.4683556,18.7440975 L29.2701981,19.1142422 L29.8391525,19.1641824 L30.2253339,19.252312 L30.3668356,19.5020128 L30.5378167,19.8692199 L30.5407646,20.2393646 L30.5466605,20.4097487 L30.5525564,20.7798934 L30.6321511,21.3527364 L30.5672962,21.7023175 L30.4110548,21.8903275 L30.2312298,22.0695245 L30.0690926,22.2575345 L29.7448181,22.6335546 L29.2200829,22.6482428 L28.5420544,22.8450658 L27.6959926,22.6805571 L27.5250115,22.8685671 L27.5309074,23.2269612 L28.0526946,23.4002829 L28.5567941,23.7528017 L29.0667895,23.5677293 L29.5885767,23.553041 L29.7713496,24.0847568 L29.9305389,24.2551409 L30.2695532,24.0730062 L30.6203593,24.2404526 L30.8001842,24.6105973 L31.1509903,24.7956697 L31.3101796,24.7956697 L31.6639337,25.1364378 L31.933,25.267 L31.933,24.511 L31.943,24.519 L32.059,24.777 L32.067,25.265 L32,25.377 L32,26.7374606 L31.8614463,26.9636601 L31.978,27.079 L31.978,26.912 L31.981,26.918 L31.981,26.842 L32.013,26.876 L32.016,26.984 L32.022,26.996 L32.016,27.008 L32.019,27.12 L32,27.139 L32,27.562942 L31.8702902,27.6951365 L32,27.938962 L32,28.1974758 L31.8879779,28.4236753 L31.5666513,28.60581 L31.0330723,28.6175607 L30.5378167,28.6293113 L30.1929065,28.8202589 L29.8538922,28.4706778 L29.8509443,28.2856055 L29.6711193,28.1152214 L29.3203132,27.750952 L28.8073699,27.759765 L28.8132658,27.9448373 L28.8221096,28.4941791 L28.6570244,28.8525732 L27.8109627,28.8701991 L27.8109627,29.0464585 L27.2980193,29.2550321 L26.7968678,29.0699597 L26.431322,28.7115657 L25.5852602,28.9201393 L25.4113312,28.7350669 L24.9013358,28.7438799 L24.7244588,27.8478947 L24.2026716,27.8596453 L23.70152,27.8655206 L23.0058038,27.6980742 L22.3189314,27.8948972 L22.516444,28.6293113 L22.8672501,28.7908824 L23.7192077,28.6028724 L24.058222,28.7644435 L24.4060801,29.3167229 L24.411976,29.6780546 L24.5741133,29.6721793 L25.0900046,30.0217604 L25.6088439,30.2097704 L25.953754,30.0041345 L26.4519576,29.8190621 L26.9707969,29.8073115 L27.6517734,29.7955609 L28.1824044,30.153955 L28.3474896,30.5064737 L28.860433,30.5005984 L29.5237218,30.1245784 L30.222386,30.2861495 L30.5702441,30.6445436 L30.7441732,31.0146883 L31.2689083,31.179197 L31.4310456,31.3554564 L31.7877476,31.7138505 L32,31.7872919 L32,42.0073985 L31.6256103,41.7518224 L31.466421,41.7547601 L31.2748042,41.5873137 L30.7766006,41.4257426 L30.4287425,41.4286802 L29.7300783,41.2436079 L29.3851681,40.7118921 L29.2289268,40.353498 L28.8633809,40.0656077 L28.4771994,40.147862 L28.0556426,40.4533783 L27.8551819,40.5708846 L27.3422386,40.5796975 L27.1712575,40.5796975 L26.8204514,40.3946252 L26.6465223,40.5973235 L26.8292953,40.9498422 L27.5191156,41.1084757 L27.7225242,41.4844957 L27.8610778,41.781199 L28.2118839,41.8223262 L28.5538462,41.6431291 L28.8899125,41.4609945 L29.2407186,41.6313785 L29.5797328,41.7958873 L29.9305389,41.9750843 L30.2636573,41.9633337 L30.6026716,42.1366554 L30.7913404,42.3246654 L31.1303547,42.6683712 L31.4841087,42.8475683 L32,42.6918725 L32,49.1987814 L31.9469369,49.219345 L31.4104099,48.8727016 L30.9151543,49.0753998 L30.9210502,49.4367316 L30.4081069,49.6364922 L30.7441732,49.6276793 L31.2689083,49.989011 L31.7789037,49.9743227 L32,49.8450658 L32,57.9236209 L31.5784431,58 L31.2364809,57.6327929 L30.8856748,57.4770972 L30.5466605,57.2890872 L30.5378167,56.7338701 L30.3786274,56.7368077 L29.8597881,56.9336307 L29.3438968,56.581112 L28.9989866,56.5928626 L28.4948871,56.9630073 L27.9966836,57.1686432 L27.4778443,57.1833315 L26.9560571,56.9982592 L26.7939199,56.9982592 L26.4490097,56.460668 L26.2573929,56.102274 L25.9183786,55.9260146 L24.9101796,56.4929823 L24.7509903,57.239147 L24.414924,57.4212817 L23.9049286,57.2597106 L23.7162598,57.0658253 L23.3919853,57.0717006 L23.0411792,56.8925035 L22.696269,56.366663 L22.6785813,56.3637254 L22.8407186,55.9935807 L22.3336711,55.4677402 L21.9976048,56.196279 L21.9710732,56.2285932 L21.8266237,56.2021543 L21.985813,55.4794908 L21.874,55.482 L21.8460821,55.5527502 L21.5102612,55.9220018 L21.2080224,56.1650135 L21.1660448,56.3259693 L21.051306,56.5689811 L20.7378731,56.9508566 L20.5867537,57.1528404 L20.4160448,57.3516682 L20.5839552,67.6181244 L20.5979478,68 L17.0886194,68 L17.1222015,67.8611362 L17.119403,67.5266005 L17.1865672,66.7691614 L17.1585821,56.4522092 L16.7304104,55.6726781 L16.5932836,55.5022543 L16.3218284,55.1014427 L16.109,54.85 L15.8304929,55.0476553 L16.0073699,55.4148624 L16.358176,55.9583288 L16.2019346,56.3196605 L16.0339014,56.6809923 L15.6860433,56.8719399 L15.3529249,56.6956806 L15.0139106,56.5282341 L14.8370336,56.5311718 L14.6719484,56.1639647 L14.4832796,55.9965183 L14.3181944,55.8143836 L14.1442653,56.0023936 L13.9762322,56.1815907 L13.805251,56.5576107 L13.808199,56.7309324 L13.3129433,57.1010771 L12.9650852,57.1040148 L12.6319668,57.3008378 L12.2811608,57.1216407 L12.1160755,56.948319 L11.7711654,56.9541943 L11.5972363,56.9630073 L11.438047,57.136329 L11.1108245,57.5270373 L10.9457393,57.5329126 L10.4062644,57.3478403 L10.250023,57.5476009 L9.56904652,57.5593515 L9.39216951,56.6516157 L9.20644864,56.6545534 L9.02367573,56.2873463 L8.69055735,56.290284 L8.16287425,55.9436405 L7.83270382,55.5969971 L7.64403501,55.4119247 L7.47010594,55.4119247 L7.13993551,55.60581 L6.79797328,55.6175607 L6.29387379,55.9847677 L5.94896361,55.9935807 L5.62468908,56.3607877 L5.2856748,56.9101295 L4.77862736,56.9218801 L4.44550898,57.1157654 L4.44845693,57.2890872 L4.26273607,57.2920248 L3.75568862,57.3037754 L3.39898664,56.948319 L3.06292031,56.9541943 L2.8919392,56.9630073 L2.73274988,56.9659449 L2.55587287,57.1568926 L2.23159834,57.5240997 L2.05766928,57.5270373 L1.88668816,57.5270373 L1.54472593,57.3507779 L1.35900507,57.3537156 L0.866697374,57.5534762 L0.182772916,57.5622892 L0.00589590051,57.3830922 L0,57.0246981 L0.165085214,56.657491 L0.324274528,56.4724187 L0.324274528,56.2961593 L0.666236757,56.102274 L0.660340857,55.7468175 L0.480515891,55.3766728 L0.642653155,55.0153411 L0.639705205,54.6451964 L0.969875633,54.4513111 L1.14085675,54.2574257 L1.48281898,54.0664781 L1.81888531,54.0635404 L1.98986642,53.896094 L2.16084754,53.6933957 L2.15495164,53.520074 L1.98102257,53.3379393 L1.8011976,52.9707322 L1.96333487,52.4213905 L2.80055274,52.0306822 L2.79760479,51.8602981 L2.96858591,51.6664128 L2.9567941,51.125884 L3.29286043,51.117071 L3.4667895,51.1141334 L3.81759558,51.2903928 L4.34233072,51.4666522 L4.49857209,51.2786421 L4.6695532,51.0847568 L4.48972824,50.7322381 L4.32169507,50.3620934 L4.13302626,50.1946469 L3.95909719,49.8098139 L3.95909719,49.6511805 L4.1182865,49.4514199 L4.79926301,49.2634099 L5.15006909,49.4308563 L5.49203132,49.2487216 L5.48613542,48.8785769 L5.30925841,48.6964422 L4.96140028,48.6993798 L4.6282819,48.8962028 L4.45435283,48.8991405 L3.94730539,48.9079534 L3.77042837,48.7258187 L3.76453247,48.3703623 L3.58470751,48.1882276 L3.23684938,48.0090306 L3.22800553,47.6447612 L3.56996776,47.2775541 L4.25684017,46.9044718 L4.59585444,47.0748558 L4.59290649,46.9015341 L4.92012897,46.5225764 L5.43602027,46.1524317 L5.94306771,46.1377434 L6.28208199,46.3198781 L6.62994012,46.3110652 L6.9689544,46.4785116 L7.30207278,46.6577086 L7.48484569,46.8398433 L7.67056656,46.8369057 L7.83270382,46.833968 L8.67286965,46.6283321 L8.66697374,46.4432597 L8.65812989,46.081928 L8.32795947,46.0878033 L7.81796407,46.1024916 L7.46715799,45.9203569 L7.46126209,45.5502122 L6.9453708,45.2123817 L6.09636112,45.0331846 L5.74850299,45.0449353 L5.57457393,45.0478729 L5.06752649,45.0566859 L4.71966836,45.0654989 L4.38654998,45.2652595 L4.38949793,45.4444565 L4.0534316,45.9967359 L3.37245509,46.0055489 L3.19852602,46.0114242 L3.03933671,46.2023719 L2.68853063,46.2111849 L2.35541225,46.2141225 L1.51229848,46.2346861 L1.32952556,45.8674791 L1.1438047,45.8704167 L0.477567941,45.885105 L0.46577614,45.3533892 L0.456932289,44.9685562 L0.630861354,44.7834838 L0.624965454,44.5954738 L0.445140488,44.2341421 L0.439244588,43.8816233 L0.610225702,43.6759874 L0.763519116,43.3087803 L1.09663749,43.3058427 L1.45628743,43.2999674 L1.96333487,43.1178327 L1.96038692,42.9386356 L1.95743897,42.7447503 L2.29055735,42.7359373 L2.28466145,42.3775432 L2.27876555,42.0308998 L2.27286965,41.8282015 L1.93090742,41.293548 L1.75697835,41.481558 L1.41796407,41.3052987 L1.24403501,41.1349146 L1.05241824,40.7677075 L1.04062644,40.3975628 L1.40322432,40.3916875 L1.56536158,40.3887499 L1.7304468,40.0097922 L1.72749885,39.6513981 L1.72160295,39.4663258 L2.22275449,39.1079317 L2.39963151,39.1020564 L2.39078766,38.720161 L2.39078766,38.5468393 L2.38783971,38.3588293 L2.70621833,37.6214775 L3.39309074,37.7947993 L3.90308614,38.1502557 L4.0947029,38.3265151 L4.42782128,38.1443804 L4.58701059,37.9387444 L4.75504376,37.7654227 L5.10290189,37.7566097 L5.60700138,37.5597867 L5.95485951,37.7389838 L6.29092584,37.5421608 L6.46780286,37.5392232 L6.80681713,37.7213579 L6.98369415,37.8917419 L7.15172731,38.2560113 L7.67056656,38.250136 L8.00958084,38.241323 L8.177614,38.0650636 L8.1717181,37.6919813 L8.16877015,37.5069089 L7.99189314,37.3247742 L7.81501612,37.1543902 L7.65287886,37.3306495 L7.30502073,37.3394625 L7.13698756,37.5274725 L6.97779825,37.5304102 L6.79797328,37.5362855 L6.63878397,37.3541508 L6.28208199,37.0045697 L6.10520497,36.8283103 L5.94601566,37.010445 L5.76913865,37.0133827 L5.2620912,37.0251333 L4.91718102,37.0310086 L4.56932289,37.0398216 L4.07406725,37.0486345 L3.71736527,36.6961158 L3.71441732,36.3230334 L3.74094887,35.9793276 L3.70262552,35.7942552 L3.85591893,35.5886193 L3.69378167,35.2214123 L3.69083372,35.0510282 L3.68788577,34.8747688 L3.84412713,34.6750082 L4.0239521,34.3107388 L4.36296637,34.0199108 L4.86116997,33.9347187 L5.03509903,33.9317811 L5.36232151,33.7349581 L5.36232151,33.564574 L5.53035468,33.3736264 L5.88116076,33.5498858 L6.38526025,33.1562398 L6.39115615,32.8095963 L6.30861354,32.2543793 L6.64467987,31.7020999 L7.03086135,31.6962246 L7.19889452,31.5170275 L7.38166743,31.3143292 L7.70594196,31.3055163 L7.88281898,31.5052769 L8.05969599,31.6697857 L8.39281437,31.8519204 L8.57263934,31.8489827 L8.7406725,31.658035 L9.25361585,31.8313568 L9.43049286,32.0046785 L9.60147398,31.8254814 L9.59852602,31.6404091 L9.58968217,31.2702644 L9.92280055,31.0881297 L9.9198526,30.9030573 L9.75181944,30.5476009 L9.57494242,30.3478403 L9.39806541,30.3537156 L9.06199908,30.3625286 L8.90575772,30.5622892 L8.36628282,30.2038951 L8.36333487,30.0188228 L8.1953017,29.6604287 L7.84449562,29.4724187 L7.71773376,29.4254162 L7.34923998,29.478294 L7.16646707,29.6839299 L6.69184708,29.8308128 L6.33219714,29.6780546 L6.14352833,29.5047329 L5.63058498,29.5194212 L5.46549977,29.7162442 L5.12648549,29.7221195 L4.95550438,29.7309324 L4.77273146,29.178653 L4.59290649,28.8231966 L4.25094427,28.4706778 L4.0711193,28.2885431 L4.0652234,27.9154608 L4.05637955,27.383745 L4.22441271,27.3808073 L4.22441271,27.1839843 L4.21556886,26.6493309 L4.20672501,26.2909368 L4.36296637,25.9031661 L4.7108245,25.8943532 L5.05278673,25.6975302 L5.38885306,25.8796649 L5.89590051,25.5095202 L6.06688162,25.3303231 L6.24081069,25.3273855 L6.22901889,24.7604178 L6.22607094,24.5841584 L6.04919392,24.4196497 L6.03740212,23.8703079 L6.03150622,23.5001632 L6.20248733,23.3239038 L6.37346845,23.3180285 L6.52676186,22.5748014 L6.69184708,22.3926667 L7.21363427,22.1987814 L7.37282358,22.1958438 L7.70594196,22.0137091 L7.87987103,22.0107714 L8.21888531,22.1782178 L8.56969139,22.3574149 L8.92049747,22.5219236 L9.25951175,22.7011207 L9.60147398,22.5042977 L9.9375403,22.4984224 L9.98175956,22.0989011 L9.89921695,21.731694 L9.58378627,21.5906865 L9.40985721,21.5965619 L9.06789498,21.7875095 L8.74362045,21.7933848 L8.37807462,21.4408661 L8.37217872,21.2557937 L8.53726393,20.7093896 L8.7229848,20.7005767 L8.52547213,20.3363073 L8.52252418,20.1629855 L8.86743436,19.9573496 L9.20939659,19.9514743 L9.55725472,20.1424219 L9.71939199,20.3098683 L9.89921695,20.303993 L10.4062644,19.927973 L10.4062644,19.5783919 L10.5742976,19.3903819 L10.8956241,19.1935589 L11.4115154,19.1876836 L11.5795486,19.3698183 L11.7652695,19.363943 L11.9274067,19.3610053 L12.2546292,18.8087259 L12.2457854,18.4356436 L12.0777522,18.2535089 L11.7446338,18.2623218 L11.3967757,18.2681971 L11.0548135,18.4591448 L10.8749885,18.106626 L10.7069553,17.9215537 L10.547766,17.9244914 L10.0318747,18.1271896 L10.0318747,18.2975737 L9.68991248,18.688282 L9.3567941,18.6941573 L9.00304007,18.5032097 L8.67876555,18.509085 L8.49894058,18.7176586 L8.15108245,18.7205962 L7.81501612,18.5296486 L7.64403501,18.5325862 L7.63519116,18.1771298 L7.80322432,17.8128604 L7.96830953,17.6072245 L7.96241363,17.251768 L8.12160295,17.0755086 L8.46651313,16.8816233 L8.81437126,16.8698727 L8.97356057,16.678925 L9.14748964,16.678925 L9.49239982,16.6730497 L9.83436205,16.8522468 L10.0082911,17.0314438 L10.5241824,16.6524861 L10.5212345,16.4644761 L10.1792722,16.2852791 L9.99355136,16.1002067 L9.81962229,16.1090197 L9.63390143,15.7623762 L9.46881621,15.3981068 L9.12390603,15.4039822 L8.7819438,15.2247851 L8.61980654,15.0397128 L8.42229387,14.5138723 L8.41639797,14.1407899 L8.06853984,14.1496029 L7.90345463,13.9674682 L7.72657761,13.7882711 L7.71773376,13.241867 L7.88281898,12.6895876 L8.03906034,12.5162659 L8.55200368,11.5879665 L8.86743436,11.2090088 L9.38922156,11.0239365 L9.89921695,11.1855076 L10.0849378,11.3558916 L10.7511746,11.5439016 L10.9103639,10.7947993 L11.0931368,10.7889239 L11.2523261,10.6126646 L11.6001842,10.6009139 L12.2841087,10.592101 L12.6260709,10.7566097 L12.620175,10.583288 L13.1301704,10.5715374 L13.4780286,10.5656621 L13.8229387,10.3717767 L14.0676186,10.1279513 L14.4921234,9.98694375 L14.6513128,9.46404091 L14.4655919,9.0938962 L14.2916628,8.90294854 L13.9585444,9.10270917 L13.6136343,9.1144598 L13.271672,8.92351213 L13.0800553,8.53280383 L12.8,8.38592101 L12.7321971,7.84539223 L12.9002303,7.65444457 L12.8913865,7.10804047 L13.0564717,6.73495811 L13.2333487,6.72614514 L13.5635191,6.72026983 L13.9025334,5.98291807 L14.0735145,5.97998042 L14.2385997,5.9741051 L14.5894058,6.16505277 L14.9166283,5.96529213 L15.0846614,5.60102274 L15.4207278,5.59220977 L15.7508982,5.23675335 L15.7420544,4.86367098 L15.9307232,4.49058862 L16.414187,4.11163094 L16.5733763,4.08225438 L16.9566099,4 Z M21.1250115,54.5776303 L20.478,54.591 L20.4636194,54.9972949 L20.4692164,55.1866546 L20.3880597,55.5874662 L20.3964552,56.3733093 L20.7210821,55.9661858 L20.8833955,55.761046 L21.093,55.37 L21.1250115,54.5776303 Z M20.256,54.596 L18.669,54.63 L18.7285448,54.877367 L19.4225746,55.1172227 L19.9011194,54.8142471 L20.2173507,54.6217313 L20.256,54.596 Z M22.8996776,49.4102927 L22.5665592,49.4132303 L22.3955781,50.3503427 L22.2393367,50.5383527 L21.5613082,51.4607768 L21.9150622,51.6252856 L21.9180101,51.810358 L22.0801474,51.8074203 L22.2629203,51.989555 L22.6137264,51.9778044 L22.6107784,51.6076597 L22.6048825,51.4402133 L22.5989866,51.0759439 L22.7404883,50.8908715 L23.0883464,50.8820585 L23.2740673,50.8761832 L23.4362045,50.8732456 L23.5953938,50.6822979 L23.5924459,50.5119138 L23.58655,50.1505821 L23.7693229,49.9478838 L23.583602,49.9537591 L23.4185168,49.783375 L23.2563795,49.783375 L23.0706587,49.7892504 L22.9026255,49.6100533 L22.8996776,49.4102927 Z M21.1780746,48.9108911 L21.0188853,48.9167664 L20.8714878,50.929061 L21.0542607,50.9231857 L21.3814832,50.3709063 L21.7087057,49.8215646 L21.867895,49.0695245 L21.5200368,49.0812752 L21.3578996,49.0871505 L21.1780746,48.9108911 Z M17.5786274,47.7035143 L17.5845233,47.8885867 L17.3988024,47.894462 L17.065684,47.9032749 L16.7178259,48.091285 L16.8976509,48.2881079 L16.9005988,48.449679 L16.9064947,48.8198237 L16.7384615,49.0107714 L16.9094427,49.0048961 L16.9153386,49.3779785 L16.9212345,49.5395496 L17.2543528,49.5307366 L17.4341778,49.7275596 L17.4371257,50.083016 L17.7849839,50.074203 L17.9382773,48.064846 L17.5786274,47.7035143 Z M13.7934592,27.5335654 L13.6224781,27.8948972 L13.6342699,28.2650419 L13.4603409,28.4589272 L13.2923077,28.6351866 L12.7823123,28.6498749 L12.6172271,28.4736155 L12.620175,28.6528125 L12.7882082,28.8349472 L12.7911561,29.0023936 L12.9680332,29.187466 L13.1301704,29.3607877 L13.2982036,29.1815907 L13.6460617,28.9877054 L13.8258867,29.1669024 L14.1707969,29.1580894 L14.5068632,29.3314112 L14.6778443,29.5252965 L14.8399816,29.3196605 L14.8370336,29.1492765 L15.0168586,29.1434012 L15.1760479,29.1404635 L15.3411331,28.9495158 L15.3381852,28.5940594 L14.6424689,27.6892612 L14.4773837,27.6951365 L14.3034546,27.6980742 L14.1442653,27.7039495 L13.7934592,27.5335654 Z M15.8187011,27.1281689 L15.6565638,27.1369818 L15.4885306,27.3103036 L16.0044219,27.8478947 L16.1695071,27.8420194 L16.3404883,27.6510717 L16.1636112,27.4865629 L16.3286965,27.2985529 L15.8187011,27.1281689 Z M22.2511285,24.2433903 L22.103731,24.6194103 L21.7647167,24.998368 L21.5878397,25.3508867 L21.5907877,25.5359591 L21.4404422,26.0941138 L21.6055274,26.4525079 L21.7912483,26.4495702 L21.9504376,26.2733108 L22.0359281,25.8356 L22.460433,25.6975302 L22.4515891,25.3273855 L22.4486412,25.1599391 L22.4456932,24.7868567 L22.6048825,24.6105973 L22.6019346,24.4108367 L22.4427453,24.6105973 L22.2540765,24.4196497 L22.2511285,24.2433903 Z M21.3873791,23.1740833 L21.216398,23.3620934 L20.8803316,23.3679687 L20.7005067,23.185834 L20.5914325,25.938418 L20.7535698,26.1117397 L20.9274988,25.9325427 L20.9245509,25.7357197 L21.0748964,25.356762 L21.0719484,25.1893156 L21.2370336,24.6370362 L21.2281898,24.2668915 L21.5613082,23.8967468 L21.3962229,23.7293004 L21.3873791,23.3591557 L21.3873791,23.1740833 Z M17.7820359,22.3368513 L17.6198987,22.895006 L17.6198987,23.0800783 L17.4518655,23.3415298 L17.2926762,23.4472854 L16.3670198,23.4414101 L16.8003685,23.6881732 L17.1718102,23.9790012 L17.2631967,24.3755848 L17.1541225,24.7251659 L17.1600184,25.0953106 L17.484293,25.0071809 L17.6346384,25.1393755 L17.835099,25.2539441 L18.0001842,25.365575 L18.1888531,25.6064628 L18.5219714,25.6005875 L18.3156149,23.7939288 L18.1446338,23.0712654 L17.7820359,22.3368513 Z M19.1321971,21.5730606 L18.9730078,21.7757589 L18.8079226,22.134153 L18.8138185,22.4984224 L18.8167665,22.8685671 L19.0260709,24.4872158 L19.1793643,23.9496246 L19.1734684,23.7763029 L19.0024873,23.4090959 L19.1646246,23.2210858 L19.3444496,23.0448265 L19.1587287,22.8626918 L19.3238139,22.12534 L19.320866,21.9402677 L19.138093,21.9402677 L19.1321971,21.5730606 Z M23.4922156,16.3704711 L22.1214187,17.3075835 L22.4722248,17.5014688 L22.6579456,17.4985312 L22.8200829,17.4926559 L22.9822202,17.4897182 L22.9733763,17.1166358 L23.1561492,16.9256882 L23.3182865,16.9198129 L23.1532013,16.7553041 L23.4922156,16.3704711 Z M22.935053,15.1102165 L22.6107784,15.1190295 L22.4397973,15.6683712 L22.0948871,15.8475683 L22.103731,16.217713 L21.9533855,16.4086606 L23.288807,15.4744859 L23.1296177,15.4774236 L22.935053,15.1102165 Z M17.7466605,11.0209988 L17.5786274,11.3940812 L17.2543528,11.5762159 L17.0715799,11.7642259 L17.0774758,11.9404853 L16.9182865,12.1284953 L17.0863197,12.3194429 L16.9271304,12.5015776 L17.0922156,12.6837123 L17.2749885,12.6807747 L17.4341778,12.8452834 L17.6110548,13.0303558 L17.9618609,13.2095528 L17.7614003,11.925797 L17.7466605,11.0209988 Z M18.7637034,10.4510935 L18.430585,10.4599064 L18.2654998,11.7348493 L18.4689083,12.8217822 L18.6280977,12.6513981 L18.787287,12.3987597 L19.1439889,12.2783157 L18.9523722,12.0814928 L18.9494242,11.8964204 L19.1321971,11.5350887 L19.0584984,11.3735176 L18.7695993,11.2942008 L18.6811608,10.8271135 L18.7637034,10.4510935 Z M21.9740212,9.48166685 L21.4935053,10.5715374 L21.1692308,11.4939615 L21.5170889,11.4851485 L21.8590511,11.3059515 L21.8561032,11.1032532 L21.8531552,10.9358068 L21.9976048,10.9299315 L21.9976048,10.5597867 L21.8384155,10.2013927 L21.8354675,10.0280709 L21.9740212,9.48166685 Z M21.275357,8.56511805 L21.1191156,8.75606572 L21.1220636,8.9528887 L21.0572087,9.31422043 L20.7771534,9.50810576 L20.6179641,9.51104341 L20.2877936,9.69317811 L20.4794104,9.85768687 L20.4823584,10.095637 L20.4617227,10.2278316 L20.4646707,10.4158416 L20.4676186,10.592101 L20.6474436,10.959308 L21.0719484,9.98400609 L21.632059,9.11739745 L21.4669737,8.7501904 L21.275357,8.56511805 Z" id="tree-emblem" fill="#02A6DB"></path>
            <polyline id="Stroke-9" stroke="#FFFFFF" stroke-width="0.5" points="7 21.146381 7 1 32 1 32 67.9735804 7 68 7 55.9057133"></polyline>
            <g id="Group-25" transform="translate(37.000000, 0.000000)">
                <path d="M98.7673217,1.93698214 C96.7509739,2.18153571 95.9822783,2.47323214 95.9822783,6.32421429 L95.9822783,27.9627857 C95.9822783,31.7165357 96.7184522,32.1555536 98.7673217,32.3500179 L98.7673217,33.2751964 L89.8090609,33.2751964 L89.8090609,32.3500179 C92.3043652,32.1555536 92.7212348,31.4248393 92.7212348,27.4265357 L92.7212348,5.54341071 L92.6561913,5.54341071 L84.528713,33.2751964 L84.0822783,33.2751964 L76.1144522,6.666 L76.0523652,6.666 L76.0523652,26.1124286 C76.0523652,31.1301964 76.7234957,32.2026964 79.0591478,32.3500179 L79.0591478,33.2751964 L71.540713,33.2751964 L71.540713,32.3500179 C73.9709739,32.1054643 74.6450609,31.37475 74.6450609,26.1124286 L74.6450609,6.32421429 C74.6450609,2.52332143 73.9709739,2.13144643 71.6057565,1.93698214 L71.6057565,1.01180357 L77.9386261,1.01180357 L85.3299304,25.6233214 L92.3989739,1.01180357 L98.7673217,1.01180357 L98.7673217,1.93698214 Z" id="Fill-11" fill="#02A6DB"></path>
                <path d="M63.1128522,16.9007143 C61.3537217,17.0951786 60.3130261,17.1924107 60.3130261,20.6544643 L60.3130261,30.4513393 C60.3130261,31.1319643 54.9942435,33.9575893 50.5949391,33.9575893 C46.6361565,33.9575893 42.1984174,32.4961607 39.3572,28.7453571 C37.2373739,25.9167857 36.0399826,23.0410714 36.0399826,16.6561607 C36.0399826,8.46803571 41.2375478,0.33 49.7168522,0.33 C53.7554609,0.33 55.5944174,1.93875 56.8745913,1.93875 C57.1938957,1.93875 58.5125043,1.69419643 58.7549391,0.33 L59.6330261,0.33 L59.9523304,10.6130357 L59.0328522,10.6130357 C57.9537217,7.10383929 55.875287,2.28053571 50.2756348,2.28053571 C46.4765043,2.28053571 40.5989391,5.35071429 40.5989391,17.6815179 C40.5989391,26.503125 44.7558087,32.01 50.9556348,32.01 C53.6756348,32.01 56.4340696,30.8874107 56.4340696,29.1342857 L56.4340696,21.2378571 C56.4340696,17.1924107 55.6358087,17.1452679 52.9158087,16.9007143 L52.9158087,16.0226786 L63.1128522,16.0226786 L63.1128522,16.9007143 Z" id="Fill-13" fill="#02A6DB"></path>
                <path d="M27.6115304,1.93698214 C25.5951826,2.18153571 24.8294435,2.47323214 24.8294435,6.32421429 L24.8294435,27.9627857 C24.8294435,31.7165357 25.5626609,32.1555536 27.6115304,32.3500179 L27.6115304,33.2751964 L18.6532696,33.2751964 L18.6532696,32.3500179 C21.1485739,32.1555536 21.5654435,31.4248393 21.5654435,27.4265357 L21.5654435,5.54341071 L21.5004,5.54341071 L13.3758783,33.2751964 L12.926487,33.2751964 L4.96161739,6.666 L4.89657391,6.666 L4.89657391,26.1124286 C4.89657391,31.1301964 5.56770435,32.2026964 7.90335652,32.3500179 L7.90335652,33.2751964 L0.384921739,33.2751964 L0.384921739,32.3500179 C2.81518261,32.1054643 3.48926957,31.37475 3.48926957,26.1124286 L3.48926957,6.32421429 C3.48926957,2.52332143 2.81518261,2.13144643 0.449965217,1.93698214 L0.449965217,1.01180357 L6.78283478,1.01180357 L14.1741391,25.6233214 L21.2461391,1.01180357 L27.6115304,1.01180357 L27.6115304,1.93698214 Z" id="Fill-15" fill="#02A6DB"></path>
                <polygon id="Fill-17" fill="#FFFFFF" points="0.385217391 67.4997321 98.7664348 67.4997321 98.7664348 37.7820536 0.385217391 37.7820536"></polygon>
                <polygon id="Fill-19" fill="#1D1D1B" points="13.7335652 42.0157768 13.7335652 45.9816696 11.0490435 45.9816696 11.0490435 63.3773839 7.66086957 63.3773839 7.66086957 45.9816696 5 45.9816696 5 42.0157768"></polygon>
                <polygon id="Fill-20" fill="#1D1D1B" points="20.7335652 63.3776786 24.1217391 63.3776786 24.1217391 42.0160714 20.7335652 42.0160714"></polygon>
                <polygon id="Fill-21" fill="#1D1D1B" points="37.0791304 42.0157768 38.7406957 54.6235446 38.7850435 54.6235446 40.148 42.0157768 44.698087 42.0157768 46.4956522 63.3773839 43.0158261 63.3773839 42.1968696 47.9940804 42.1495652 47.9940804 41.6055652 53.2622946 40.148 63.3773839 37.5344348 63.3773839 35.8728696 53.1503304 35.3052174 48.3889018 35.3052174 47.9940804 35.2608696 47.9940804 34.7582609 63.3773839 31.1217391 63.3773839 32.6206957 42.0157768"></polygon>
                <path d="M56.8838261,54.0563571 L56.8838261,59.83725 C58.2467826,59.91975 59.0450435,58.6734107 59.0450435,56.8908214 C59.0450435,55.21725 58.226087,54.000375 56.8838261,54.0563571 L56.8838261,54.0563571 Z M56.8838261,45.5588571 L56.8838261,50.7710893 C58.158087,50.7710893 58.9090435,49.6926964 58.9090435,48.0780536 C58.9090435,46.5223393 58.1787826,45.4734107 56.8838261,45.5588571 L56.8838261,45.5588571 Z M53.4956522,63.3788571 L53.4956522,42.01725 L56.8158261,42.01725 C58.1344348,42.01725 59.2726957,42.0732321 60.3636522,43.1781429 C61.501913,44.3095714 62.113913,46.2100179 62.113913,47.9926071 C62.113913,49.8930536 61.5462609,51.3368036 60.272,52.41225 C61.6822609,53.2637679 62.3888696,55.5295714 62.3888696,57.3710893 C62.3888696,61.5933214 59.8846957,63.3788571 56.7921739,63.3788571 L53.4956522,63.3788571 Z" id="Fill-22" fill="#1D1D1B"></path>
                <polygon id="Fill-23" fill="#1D1D1B" points="76.2125217 42.0157768 76.2125217 45.9816696 72.78 45.9816696 72.78 50.6281875 75.8045217 50.6281875 75.8045217 54.5940804 72.78 54.5940804 72.78 59.4114911 76.2598261 59.4114911 76.2598261 63.3773839 69.3888696 63.3773839 69.3888696 42.0157768"></polygon>
                <path d="M86.648,51.1947857 L87.2393043,51.22425 C88.7855652,51.22425 89.4005217,49.9219286 89.4005217,48.1629107 C89.4005217,46.6337143 88.8092174,45.387375 87.1033043,45.4993393 L86.648,45.4993393 L86.648,51.1947857 Z M83.2598261,63.3782679 L83.2598261,42.0166607 L86.6716522,42.0166607 C88.829913,42.0166607 92.6970435,42.2995179 92.6970435,48.1363929 C92.6970435,50.4876429 91.946087,52.4971071 90.2638261,53.6609464 L93.244,63.3782679 L89.6725217,63.3782679 L86.6923478,53.5195179 L86.648,53.5195179 L86.648,63.3782679 L83.2598261,63.3782679 Z" id="Fill-24" fill="#1D1D1B"></path>
            </g>
        </g>
    </g>
</svg>